<?xml version="1.0" encoding="utf-8"?>
<svg version="1.1" xmlns:xlink="http://www.w3.org/1999/xlink" width="50px" height="42px" xmlns="http://www.w3.org/2000/svg">
  <g transform="matrix(1 0 0 1 -667 -227 )">
    <path d="M 37.92317708333333 19.5234375  C 38.33550347222223 19.9390625  38.54166666666667 20.43125  38.54166666666667 21  C 38.54166666666667 21.568749999999994  38.33550347222223 22.060937499999994  37.92317708333333 22.4765625  L 20.21484375 40.3265625  C 19.802517361111114 40.7421875  19.314236111111114 40.949999999999996  18.75 40.949999999999996  C 18.185763888888893 40.949999999999996  17.697482638888893 40.7421875  17.28515625 40.3265625  C 16.872829861111114 39.910937499999996  16.666666666666664 39.418749999999996  16.666666666666664 38.85  L 16.666666666666664 29  L 2.083333333333333 29  C 1.5190972222222223 29.4  1.030815972222222 29.1921875  0.6184895833333333 28.7765625  C 0.20616319444444445 28.360937499999995  0 27.868749999999995  0 27.3  L 0 14.7  C 0 14.131249999999994  0.20616319444444445 13.639062499999994  0.6184895833333333 13.2234375  C 1.030815972222222 12.807812499999999  1.5190972222222223 12.600000000000001  2.083333333333333 13  L 16.666666666666664 13  L 16.666666666666664 3.149999999999998  C 16.666666666666664 2.581249999999993  16.872829861111114 2.089062499999993  17.28515625 1.6734374999999981  C 17.697482638888893 1.2578124999999984  18.185763888888893 1.050000000000001  18.75 1.050000000000001  C 19.314236111111114 1.050000000000001  19.802517361111114 1.2578124999999984  20.21484375 1.6734374999999981  L 37.92317708333333 19.5234375  Z M 47.24934895833333 2.7726562500000007  C 49.08311631944444 4.621093749999998  50 6.846874999999994  50 9.45  L 50 32.550000000000004  C 50 35.153124999999996  49.08311631944444 37.37890625  47.24934895833333 39.227343749999996  C 45.41558159722223 41.07578125  43.207465277777786 42  40.625 42  L 30.208333333333332 42  C 29.926215277777786 42  29.682074652777786 41.89609375  29.475911458333332 41.688281249999996  C 29.26974826388889 41.48046875  29.166666666666668 41.234375  29.166666666666668 40.949999999999996  C 29.166666666666668 40.8625  29.155815972222225 40.643750000000004  29.134114583333332 40.293749999999996  C 29.112413194444446 39.943749999999994  29.106987847222225 39.65390625  29.117838541666668 39.42421875  C 29.12868923611111 39.194531250000004  29.161241319444446 38.9375  29.215494791666668 38.653124999999996  C 29.26974826388889 38.36875  29.378255208333336 38.15546875  29.541015625 38.01328125  C 29.703776041666668 37.87109375  29.926215277777786 37.800000000000004  30.208333333333332 37  L 40.625 37  C 42.05729166666667 37.800000000000004  43.28342013888889 37.285937499999996  44.30338541666667 36.2578125  C 45.32335069444445 35.22968749999999  45.83333333333333 33.99375  45 32.550000000000004  L 45 9.45  C 45.83333333333333 8.006250000000001  45.32335069444445 6.7703124999999975  44.30338541666667 5.7421875  C 43.28342013888889 4.714062499999994  42.05729166666667 4.199999999999999  40.625 4.199999999999999  L 31.25 4.199999999999999  L 30.891927083333332 4.199999999999999  L 30.46875 4.199999999999999  C 30.468750000000007 4.199999999999999  30.34396701388889 4.189062499999995  30.094401041666668 4.167187500000001  C 29.844835069444446 4.1453124999999975  29.720052083333332 4.112499999999999  29.720052083333332 4.068750000000001  C 29.720052083333332 4.024999999999995  29.63324652777778 3.9648437499999982  29.459635416666668 3.888281249999998  C 29.286024305555557 3.811718749999993  29.210069444444446 3.7132812499999943  29.231770833333332 3.5929687500000007  C 29.253472222222225 3.4726562499999982  29.231770833333332 3.3249999999999975  29.166666666666668 3.149999999999998  C 29.166666666666668 3.0624999999999982  29.155815972222225 2.843749999999997  29.134114583333332 2.493749999999998  C 29.112413194444446 2.1437499999999994  29.106987847222225 1.8539062500000019  29.117838541666668 1.624218750000001  C 29.12868923611111 1.39453125  29.161241319444446 1.137499999999996  29.215494791666668 0.8531249999999981  C 29.26974826388889 0.5687499999999956  29.378255208333336 0.35546874999999845  29.541015625 0.21328125000000187  C 29.703776041666668 0.07109374999999596  29.926215277777786 0  30.208333333333332 0  L 40.625 0  C 43.207465277777786 0  45.41558159722223 0.9242187499999941  47.24934895833333 2.7726562500000007  Z " fill-rule="nonzero" fill="#00993d" stroke="none" transform="matrix(1 0 0 1 667 227 )" />
  </g>
</svg>